<svg width="136" height="45" viewBox="0 0 136 45" fill="none" xmlns="http://www.w3.org/2000/svg">
<path fill-rule="evenodd" clip-rule="evenodd" d="M35.5818 29.7743C34.7976 29.7743 34.0526 29.9311 33.3468 30.2448C32.641 30.5585 32.0528 30.9506 31.5431 31.4603C31.0334 31.97 30.6413 32.5582 30.3276 33.264C30.0139 33.9698 29.8963 34.6756 29.8963 35.4598C29.8963 36.244 30.0531 36.989 30.3276 37.6556C30.6413 38.3614 31.0334 38.9495 31.5431 39.4593C32.0528 39.969 32.641 40.3611 33.3468 40.6748C34.0526 40.9885 34.7976 41.1453 35.5818 41.1453C36.366 41.1453 37.111 40.9885 37.8168 40.6748C38.5226 40.3611 39.1107 39.969 39.6205 39.4593C40.1302 38.9495 40.5223 38.3221 40.836 37.6556C41.1497 36.989 41.2673 36.244 41.2673 35.4598C41.2673 34.6756 41.1105 33.9698 40.836 33.264C40.5223 32.5974 40.1302 31.97 39.6205 31.4603C39.1107 30.9506 38.5226 30.5193 37.8168 30.2448C37.111 29.8919 36.366 29.7743 35.5818 29.7743ZM41.2673 42.8314V42.5177C40.4439 43.1843 39.5813 43.6548 38.6402 44.0077C37.6992 44.3606 36.6797 44.5174 35.5818 44.5174C33.0723 44.5174 30.955 43.6156 29.1513 41.8511C27.3868 40.0866 26.485 37.93 26.485 35.4206C26.485 32.9111 27.3868 30.7937 29.1513 28.99C30.9157 27.2256 33.0723 26.3237 35.5818 26.3237C38.0521 26.3237 40.2086 27.2256 42.0123 28.99C43.7768 30.7545 44.6786 32.9111 44.6786 35.4206V42.7921C44.6786 43.2627 44.5218 43.6548 44.1689 43.9685C43.8552 44.2821 43.4239 44.4782 42.9926 44.4782C42.5221 44.4782 42.13 44.3214 41.7771 43.9685C41.4242 43.694 41.2673 43.3019 41.2673 42.8314Z" fill="#12284C"/>
<path fill-rule="evenodd" clip-rule="evenodd" d="M61.7354 35.4601C61.7354 34.6759 61.5786 33.9701 61.3041 33.2643C60.9904 32.5978 60.5983 31.9704 60.0886 31.4607C59.5788 30.9509 58.9907 30.5196 58.2849 30.2451C57.5791 29.9314 56.8733 29.7746 56.0499 29.7746C55.2657 29.7746 54.5207 29.9314 53.8149 30.2451C53.1091 30.5588 52.5209 30.9509 52.0112 31.4607C51.5015 31.9704 51.1093 32.5586 50.7957 33.2643C50.482 33.9701 50.3643 34.6759 50.3643 35.4601C50.3643 36.2443 50.5212 36.9893 50.7957 37.6559C51.1093 38.3617 51.5015 38.9499 52.0112 39.4596C52.5209 39.9693 53.1091 40.3614 53.8149 40.6751C54.5207 40.9888 55.2657 41.1457 56.0499 41.1457C56.8341 41.1457 57.5791 40.9888 58.2849 40.6751C58.9907 40.3614 59.5788 39.9693 60.0886 39.4596C60.5983 38.9499 60.9904 38.3225 61.3041 37.6559C61.5786 36.9501 61.7354 36.2051 61.7354 35.4601ZM56.0499 26.3633C58.2064 26.3633 60.0886 27.0299 61.7354 28.363V20.2857C61.7354 19.8151 61.8922 19.3838 62.2059 19.0701C62.5196 18.7565 62.9117 18.5996 63.4214 18.5996C63.892 18.5996 64.2841 18.7565 64.637 19.0701C64.9507 19.3838 65.1467 19.7759 65.1467 20.2857V35.4601C65.1467 37.9696 64.2449 40.1262 62.4804 41.8907C60.6767 43.6551 58.5593 44.557 56.0499 44.557C53.5404 44.557 51.423 43.6551 49.6193 41.8907C47.8549 40.1262 46.953 37.9696 46.953 35.4601C46.953 32.9507 47.8549 30.8333 49.6193 29.0296C51.423 27.2651 53.5404 26.3633 56.0499 26.3633Z" fill="#12284C"/>
<path fill-rule="evenodd" clip-rule="evenodd" d="M70.8713 35.8914C69.8519 35.4993 69.1461 35.1072 68.7148 34.6759C67.8913 33.8525 67.4992 32.8722 67.4992 31.7351C67.4992 30.9117 67.7345 30.1667 68.1658 29.5001C68.5971 28.8335 69.1853 28.2846 69.8911 27.8141C70.5969 27.3435 71.3811 26.9906 72.2829 26.7554C73.1455 26.5201 74.0474 26.3633 74.9492 26.3633C77.6547 26.3633 79.9682 27.4612 81.8895 29.6178C82.1247 29.8922 82.2424 30.2451 82.2424 30.6372C82.2424 31.1078 82.0855 31.5391 81.7719 31.8528C81.4582 32.1664 81.0661 32.3233 80.5563 32.3233C80.2034 32.3233 79.929 32.2449 79.6545 32.0488C79.4192 31.8528 79.184 31.6567 78.9487 31.4214C77.8508 30.3235 76.5176 29.7746 74.9492 29.7746C73.3808 29.7746 72.1653 30.2451 71.2242 31.1862C71.0674 31.343 70.9497 31.5783 70.9497 31.892C70.9497 32.2057 71.1066 32.4017 71.3811 32.5193L78.9487 35.0288C80.0074 35.4209 80.7132 35.8522 81.1053 36.2443C81.9287 37.0678 82.3208 38.048 82.3208 39.1851C82.3208 40.0085 82.0855 40.7535 81.6542 41.4201C81.2229 42.0867 80.6347 42.6356 79.929 43.1062C79.2232 43.5767 78.439 43.9296 77.5763 44.1649C76.7137 44.4001 75.8119 44.557 74.9492 44.557C72.2437 44.557 69.9303 43.4983 68.009 41.3417C67.7737 41.028 67.6561 40.6751 67.6561 40.283C67.6561 39.8125 67.8129 39.3812 68.1266 39.0675C68.4403 38.7538 68.8324 38.597 69.3421 38.597C69.695 38.597 70.0087 38.7146 70.244 38.9106C70.4792 39.1067 70.7145 39.342 70.9105 39.4988C72.0084 40.5967 73.3416 41.1456 74.9492 41.1456C76.4784 41.1456 77.7332 40.6751 78.6742 39.6949C78.8311 39.4988 78.9095 39.3028 78.9095 39.0283C78.9095 38.7146 78.7526 38.5185 78.4782 38.4009L70.8713 35.8914Z" fill="#12284C"/>
<path fill-rule="evenodd" clip-rule="evenodd" d="M89.026 42.204C89.026 42.8314 88.7907 43.3804 88.3594 43.8509C87.9281 44.2822 87.3792 44.5175 86.7126 44.5175C86.0852 44.5175 85.5363 44.2822 85.0657 43.8509C84.6344 43.4196 84.3992 42.8706 84.3992 42.204C84.3992 41.5767 84.6344 41.0277 85.0657 40.5572C85.497 40.1259 86.046 39.8906 86.7126 39.8906C87.3399 39.8906 87.8889 40.1259 88.3594 40.5572C88.8299 41.0277 89.026 41.5767 89.026 42.204Z" fill="#12284C"/>
<path fill-rule="evenodd" clip-rule="evenodd" d="M99.5341 41.1457C100.318 41.1457 101.063 40.9888 101.769 40.6751C102.475 40.3614 103.063 39.9693 103.573 39.4596C104.083 38.9499 104.475 38.3225 104.788 37.6559C105.102 36.9893 105.22 36.2443 105.22 35.4601C105.22 34.6759 105.063 33.9701 104.788 33.2643C104.475 32.5978 104.083 31.9704 103.573 31.4607C103.063 30.9509 102.475 30.5196 101.769 30.2451C101.063 29.9314 100.358 29.7746 99.5341 29.7746C98.7499 29.7746 98.0049 29.9314 97.2991 30.2451C96.5933 30.5588 96.0052 30.9509 95.4954 31.4607C94.9857 31.9704 94.5936 32.5586 94.2799 33.2643C93.9662 33.9701 93.8486 34.6759 93.8486 35.4601C93.8486 36.2443 94.0054 36.9893 94.2799 37.6559C94.5936 38.3617 94.9857 38.9499 95.4954 39.4596C96.0052 39.9693 96.5933 40.3614 97.2991 40.6751C98.0049 40.9888 98.7499 41.1457 99.5341 41.1457ZM93.8486 28.4022C95.4562 27.0691 97.3383 26.4025 99.5341 26.4025C102.004 26.4025 104.161 27.3043 105.965 29.0688C106.866 29.9314 107.533 30.9117 107.964 32.0096C108.396 33.0683 108.631 34.2446 108.631 35.4993C108.631 38.0088 107.729 40.1654 105.965 41.9299C104.161 43.6943 102.044 44.5962 99.5341 44.5962C97.0246 44.5962 94.9073 43.6943 93.1036 41.9299C91.3391 40.1654 90.4373 38.0088 90.4373 35.4993V20.2857C90.4373 19.8151 90.5941 19.3838 90.9078 19.0701C91.2215 18.7565 91.6136 18.5996 92.1233 18.5996C92.5939 18.5996 92.986 18.7565 93.3389 19.0701C93.6525 19.3838 93.8486 19.7759 93.8486 20.2857V28.4022Z" fill="#12284C"/>
<path fill-rule="evenodd" clip-rule="evenodd" d="M111.533 42.7926V28.0887C111.533 27.6182 111.69 27.2261 112.043 26.8732C112.356 26.5595 112.788 26.3634 113.219 26.3634C113.689 26.3634 114.081 26.5203 114.395 26.8732C114.709 27.1869 114.905 27.6182 114.905 28.0887V42.8319C114.905 43.3024 114.709 43.6945 114.395 44.0474C114.081 44.3611 113.65 44.5571 113.219 44.5571C112.748 44.5571 112.356 44.4003 112.043 44.0474C111.69 43.6945 111.533 43.3024 111.533 42.7926ZM115.219 23.1482C115.219 23.6971 115.023 24.1676 114.63 24.5598C114.238 24.9519 113.768 25.1479 113.219 25.1479C112.67 25.1479 112.199 24.9519 111.807 24.5598C111.415 24.1676 111.219 23.6971 111.219 23.1482C111.219 22.5992 111.415 22.1287 111.807 21.7366C112.199 21.3445 112.67 21.1484 113.219 21.1484C113.768 21.1484 114.238 21.3445 114.63 21.7366C115.023 22.1287 115.219 22.5992 115.219 23.1482Z" fill="#12284C"/>
<path fill-rule="evenodd" clip-rule="evenodd" d="M132.589 35.4601C132.589 34.6759 132.432 33.9701 132.157 33.2643C131.844 32.5978 131.452 31.9704 130.942 31.4607C130.432 30.9509 129.844 30.5196 129.138 30.2451C128.432 29.9314 127.727 29.7746 126.903 29.7746C126.119 29.7746 125.374 29.9314 124.668 30.2451C123.962 30.5588 123.374 30.9509 122.865 31.4607C122.355 31.9704 121.963 32.5586 121.649 33.2643C121.335 33.9701 121.218 34.6759 121.218 35.4601C121.218 36.2443 121.375 36.9893 121.649 37.6559C121.963 38.3617 122.355 38.9499 122.865 39.4596C123.374 39.9693 123.962 40.3614 124.668 40.6751C125.374 40.9888 126.119 41.1457 126.903 41.1457C127.687 41.1457 128.432 40.9888 129.138 40.6751C129.844 40.3614 130.432 39.9693 130.942 39.4596C131.452 38.9499 131.844 38.3225 132.157 37.6559C132.432 36.9501 132.589 36.2051 132.589 35.4601ZM126.903 26.3633C129.06 26.3633 130.942 27.0299 132.589 28.363V20.2857C132.589 19.8151 132.746 19.3838 133.059 19.0701C133.373 18.7565 133.765 18.5996 134.275 18.5996C134.745 18.5996 135.137 18.7565 135.49 19.0701C135.804 19.3838 136 19.7759 136 20.2857V35.4601C136 37.9696 135.098 40.1262 133.334 41.8907C131.53 43.6551 129.413 44.557 126.903 44.557C124.394 44.557 122.276 43.6551 120.473 41.8907C118.708 40.1262 117.806 37.9696 117.806 35.4601C117.806 32.9507 118.708 30.8333 120.473 29.0296C122.276 27.2651 124.394 26.3633 126.903 26.3633Z" fill="#12284C"/>
<path fill-rule="evenodd" clip-rule="evenodd" d="M37.9346 9.62022C38.5228 9.46338 39.1501 9.46338 39.7775 9.5418L30.367 6.67943C29.5436 6.44417 28.7201 6.44417 27.9751 6.60101C27.1909 6.75785 26.4851 7.11074 25.8578 7.6989L1.42963 30.4018C-0.374057 32.0878 -0.49169 34.9502 1.19436 36.7539C2.88042 38.5576 5.74278 38.6752 7.54647 36.9892L30.1317 16.0115L35.8172 10.7181C36.4446 10.1692 37.1896 9.77706 37.9346 9.62022Z" fill="url(#paint0_linear)"/>
<path fill-rule="evenodd" clip-rule="evenodd" d="M49.0831 11.1444C51.8279 11.811 54.8079 11.0268 56.886 9.1055L59.3171 6.8705C60.3758 5.89024 60.8463 4.55708 60.7287 3.22393C60.6502 2.40051 60.2973 1.65551 59.67 1.10656L59.6308 1.06735C57.8663 -0.461862 55.2392 -0.30502 53.5531 1.2634L44.4563 9.73287C45.9071 10.2034 47.5539 10.7916 49.0831 11.1444Z" fill="url(#paint1_linear)"/>
<path fill-rule="evenodd" clip-rule="evenodd" d="M50.1681 12.5609C49.6192 12.5217 49.0696 12.3721 48.5213 12.208L43.2671 10.6003C42.8357 10.4827 42.2868 10.3259 41.8163 10.169C41.1105 9.97298 40.3263 9.89456 39.6205 10.0906C38.7971 10.2475 38.0129 10.6396 37.3463 11.2277L31.5431 16.4427L43.5023 20.0893C44.1766 20.2708 44.8057 20.2708 45.5047 20.131C46.2889 19.9741 46.9136 19.5011 47.541 18.913L53.1873 13.6588L53.7363 13.149L56.7947 10.3259C54.991 11.9727 52.56 12.7961 50.1681 12.5609Z" fill="url(#paint2_linear)"/>
<defs>
<linearGradient id="paint0_linear" x1="-15.7706" y1="-20.6243" x2="31.068" y2="36.0367" gradientUnits="userSpaceOnUse">
<stop stop-color="#4690FF"/>
<stop offset="1" stop-color="#9966E0"/>
</linearGradient>
<linearGradient id="paint1_linear" x1="32.2926" y1="31.6199" x2="67.5818" y2="-10.4128" gradientUnits="userSpaceOnUse">
<stop offset="0.3282" stop-color="#7E4D99"/>
<stop offset="0.3436" stop-color="#7B509E"/>
<stop offset="0.4712" stop-color="#6867C1"/>
<stop offset="0.6007" stop-color="#5979DC"/>
<stop offset="0.7312" stop-color="#4F86EF"/>
<stop offset="0.8635" stop-color="#488DFB"/>
<stop offset="1" stop-color="#4690FF"/>
</linearGradient>
<linearGradient id="paint2_linear" x1="35.456" y1="-4.12746" x2="52.606" y2="29.6559" gradientUnits="userSpaceOnUse">
<stop offset="0.3282" stop-color="#7E4D99"/>
<stop offset="0.3436" stop-color="#7B509E"/>
<stop offset="0.4712" stop-color="#6867C1"/>
<stop offset="0.6007" stop-color="#5979DC"/>
<stop offset="0.7312" stop-color="#4F86EF"/>
<stop offset="0.8635" stop-color="#488DFB"/>
<stop offset="1" stop-color="#4690FF"/>
</linearGradient>
</defs>
</svg>
