<svg width="136" height="45" viewBox="0 0 136 45" fill="none" xmlns="http://www.w3.org/2000/svg">
<path fill-rule="evenodd" clip-rule="evenodd" d="M35.5818 29.7744C34.7976 29.7744 34.0526 29.9312 33.3468 30.2449C32.641 30.5586 32.0528 30.9507 31.5431 31.4604C31.0334 31.9702 30.6413 32.5583 30.3276 33.2641C30.0139 33.9699 29.8963 34.6757 29.8963 35.4599C29.8963 36.2441 30.0531 36.9891 30.3276 37.6557C30.6413 38.3615 31.0334 38.9496 31.5431 39.4594C32.0528 39.9691 32.641 40.3612 33.3468 40.6749C34.0526 40.9886 34.7976 41.1454 35.5818 41.1454C36.366 41.1454 37.111 40.9886 37.8168 40.6749C38.5226 40.3612 39.1107 39.9691 39.6205 39.4594C40.1302 38.9496 40.5223 38.3223 40.836 37.6557C41.1497 36.9891 41.2673 36.2441 41.2673 35.4599C41.2673 34.6757 41.1105 33.9699 40.836 33.2641C40.5223 32.5975 40.1302 31.9702 39.6205 31.4604C39.1107 30.9507 38.5226 30.5194 37.8168 30.2449C37.111 29.892 36.366 29.7744 35.5818 29.7744ZM41.2673 42.8315V42.5178C40.4439 43.1844 39.5813 43.6549 38.6402 44.0078C37.6992 44.3607 36.6797 44.5175 35.5818 44.5175C33.0723 44.5175 30.955 43.6157 29.1513 41.8512C27.3868 40.0867 26.485 37.9302 26.485 35.4207C26.485 32.9112 27.3868 30.7939 29.1513 28.9902C30.9157 27.2257 33.0723 26.3239 35.5818 26.3239C38.0521 26.3239 40.2086 27.2257 42.0123 28.9902C43.7768 30.7546 44.6786 32.9112 44.6786 35.4207V42.7923C44.6786 43.2628 44.5218 43.6549 44.1689 43.9686C43.8552 44.2823 43.4239 44.4783 42.9926 44.4783C42.5221 44.4783 42.13 44.3215 41.7771 43.9686C41.4242 43.6941 41.2673 43.302 41.2673 42.8315Z" fill="white"/>
<path fill-rule="evenodd" clip-rule="evenodd" d="M61.7354 35.46C61.7354 34.6758 61.5786 33.97 61.3041 33.2642C60.9904 32.5976 60.5983 31.9703 60.0886 31.4605C59.5788 30.9508 58.9907 30.5195 58.2849 30.245C57.5791 29.9313 56.8733 29.7745 56.0499 29.7745C55.2657 29.7745 54.5207 29.9313 53.8149 30.245C53.1091 30.5587 52.5209 30.9508 52.0112 31.4605C51.5015 31.9703 51.1093 32.5584 50.7957 33.2642C50.482 33.97 50.3643 34.6758 50.3643 35.46C50.3643 36.2442 50.5212 36.9892 50.7957 37.6558C51.1093 38.3616 51.5015 38.9497 52.0112 39.4595C52.5209 39.9692 53.1091 40.3613 53.8149 40.675C54.5207 40.9887 55.2657 41.1455 56.0499 41.1455C56.8341 41.1455 57.5791 40.9887 58.2849 40.675C58.9907 40.3613 59.5788 39.9692 60.0886 39.4595C60.5983 38.9497 60.9904 38.3224 61.3041 37.6558C61.5786 36.95 61.7354 36.205 61.7354 35.46ZM56.0499 26.3632C58.2064 26.3632 60.0886 27.0297 61.7354 28.3629V20.2855C61.7354 19.815 61.8922 19.3837 62.2059 19.07C62.5196 18.7563 62.9117 18.5995 63.4214 18.5995C63.892 18.5995 64.2841 18.7563 64.637 19.07C64.9507 19.3837 65.1467 19.7758 65.1467 20.2855V35.46C65.1467 37.9695 64.2449 40.1261 62.4804 41.8905C60.6767 43.655 58.5593 44.5568 56.0499 44.5568C53.5404 44.5568 51.423 43.655 49.6193 41.8905C47.8549 40.1261 46.953 37.9695 46.953 35.46C46.953 32.9505 47.8549 30.8332 49.6193 29.0295C51.423 27.265 53.5404 26.3632 56.0499 26.3632Z" fill="white"/>
<path fill-rule="evenodd" clip-rule="evenodd" d="M70.8713 35.8913C69.8519 35.4992 69.1461 35.1071 68.7148 34.6758C67.8913 33.8524 67.4992 32.8721 67.4992 31.735C67.4992 30.9116 67.7345 30.1666 68.1658 29.5C68.5971 28.8334 69.1853 28.2845 69.8911 27.814C70.5969 27.3434 71.3811 26.9905 72.2829 26.7553C73.1455 26.52 74.0474 26.3632 74.9492 26.3632C77.6547 26.3632 79.9682 27.4611 81.8895 29.6176C82.1247 29.8921 82.2424 30.245 82.2424 30.6371C82.2424 31.1076 82.0855 31.5389 81.7719 31.8526C81.4582 32.1663 81.0661 32.3232 80.5563 32.3232C80.2034 32.3232 79.929 32.2447 79.6545 32.0487C79.4192 31.8526 79.184 31.6566 78.9487 31.4213C77.8508 30.3234 76.5176 29.7745 74.9492 29.7745C73.3808 29.7745 72.1653 30.245 71.2242 31.1861C71.0674 31.3429 70.9497 31.5782 70.9497 31.8918C70.9497 32.2055 71.1066 32.4016 71.3811 32.5192L78.9487 35.0287C80.0074 35.4208 80.7132 35.8521 81.1053 36.2442C81.9287 37.0676 82.3208 38.0479 82.3208 39.185C82.3208 40.0084 82.0855 40.7534 81.6542 41.42C81.2229 42.0866 80.6347 42.6355 79.929 43.1061C79.2232 43.5766 78.439 43.9295 77.5763 44.1647C76.7137 44.4 75.8119 44.5568 74.9492 44.5568C72.2437 44.5568 69.9303 43.4982 68.009 41.3416C67.7737 41.0279 67.6561 40.675 67.6561 40.2829C67.6561 39.8124 67.8129 39.3811 68.1266 39.0674C68.4403 38.7537 68.8324 38.5968 69.3421 38.5968C69.695 38.5968 70.0087 38.7145 70.244 38.9105C70.4792 39.1066 70.7145 39.3418 70.9105 39.4987C72.0084 40.5966 73.3416 41.1455 74.9492 41.1455C76.4784 41.1455 77.7332 40.675 78.6742 39.6947C78.8311 39.4987 78.9095 39.3026 78.9095 39.0282C78.9095 38.7145 78.7526 38.5184 78.4782 38.4008L70.8713 35.8913Z" fill="white"/>
<path fill-rule="evenodd" clip-rule="evenodd" d="M89.026 42.2043C89.026 42.8317 88.7907 43.3806 88.3594 43.8511C87.9281 44.2824 87.3792 44.5177 86.7126 44.5177C86.0852 44.5177 85.5363 44.2824 85.0657 43.8511C84.6344 43.4198 84.3992 42.8709 84.3992 42.2043C84.3992 41.5769 84.6344 41.028 85.0657 40.5574C85.497 40.1261 86.046 39.8909 86.7126 39.8909C87.3399 39.8909 87.8889 40.1261 88.3594 40.5574C88.8299 41.028 89.026 41.5769 89.026 42.2043Z" fill="white"/>
<path fill-rule="evenodd" clip-rule="evenodd" d="M99.5341 41.1455C100.318 41.1455 101.063 40.9887 101.769 40.675C102.475 40.3613 103.063 39.9692 103.573 39.4595C104.083 38.9497 104.475 38.3224 104.788 37.6558C105.102 36.9892 105.22 36.2442 105.22 35.46C105.22 34.6758 105.063 33.97 104.788 33.2642C104.475 32.5976 104.083 31.9703 103.573 31.4605C103.063 30.9508 102.475 30.5195 101.769 30.245C101.063 29.9313 100.358 29.7745 99.5341 29.7745C98.7499 29.7745 98.0049 29.9313 97.2991 30.245C96.5933 30.5587 96.0052 30.9508 95.4954 31.4605C94.9857 31.9703 94.5936 32.5584 94.2799 33.2642C93.9662 33.97 93.8486 34.6758 93.8486 35.46C93.8486 36.2442 94.0054 36.9892 94.2799 37.6558C94.5936 38.3616 94.9857 38.9497 95.4954 39.4595C96.0052 39.9692 96.5933 40.3613 97.2991 40.675C98.0049 40.9887 98.7499 41.1455 99.5341 41.1455ZM93.8486 28.4021C95.4562 27.069 97.3383 26.4024 99.5341 26.4024C102.004 26.4024 104.161 27.3042 105.965 29.0687C106.866 29.9313 107.533 30.9116 107.964 32.0095C108.396 33.0682 108.631 34.2445 108.631 35.4992C108.631 38.0087 107.729 40.1653 105.965 41.9297C104.161 43.6942 102.044 44.5961 99.5341 44.5961C97.0246 44.5961 94.9073 43.6942 93.1036 41.9297C91.3391 40.1653 90.4373 38.0087 90.4373 35.4992V20.2855C90.4373 19.815 90.5941 19.3837 90.9078 19.07C91.2215 18.7563 91.6136 18.5995 92.1233 18.5995C92.5939 18.5995 92.986 18.7563 93.3389 19.07C93.6525 19.3837 93.8486 19.7758 93.8486 20.2855V28.4021Z" fill="white"/>
<path fill-rule="evenodd" clip-rule="evenodd" d="M111.533 42.7926V28.0886C111.533 27.6181 111.69 27.226 112.043 26.8731C112.356 26.5594 112.788 26.3634 113.219 26.3634C113.689 26.3634 114.081 26.5202 114.395 26.8731C114.709 27.1868 114.905 27.6181 114.905 28.0886V42.8318C114.905 43.3023 114.709 43.6944 114.395 44.0473C114.081 44.361 113.65 44.5571 113.219 44.5571C112.748 44.5571 112.356 44.4002 112.043 44.0473C111.69 43.6944 111.533 43.3023 111.533 42.7926ZM115.219 23.1481C115.219 23.6971 115.023 24.1676 114.63 24.5597C114.238 24.9518 113.768 25.1478 113.219 25.1478C112.67 25.1478 112.199 24.9518 111.807 24.5597C111.415 24.1676 111.219 23.6971 111.219 23.1481C111.219 22.5992 111.415 22.1286 111.807 21.7365C112.199 21.3444 112.67 21.1484 113.219 21.1484C113.768 21.1484 114.238 21.3444 114.63 21.7365C115.023 22.1286 115.219 22.5992 115.219 23.1481Z" fill="white"/>
<path fill-rule="evenodd" clip-rule="evenodd" d="M132.589 35.46C132.589 34.6758 132.432 33.97 132.157 33.2642C131.844 32.5976 131.452 31.9703 130.942 31.4605C130.432 30.9508 129.844 30.5195 129.138 30.245C128.432 29.9313 127.727 29.7745 126.903 29.7745C126.119 29.7745 125.374 29.9313 124.668 30.245C123.962 30.5587 123.374 30.9508 122.865 31.4605C122.355 31.9703 121.963 32.5584 121.649 33.2642C121.335 33.97 121.218 34.6758 121.218 35.46C121.218 36.2442 121.375 36.9892 121.649 37.6558C121.963 38.3616 122.355 38.9497 122.865 39.4595C123.374 39.9692 123.962 40.3613 124.668 40.675C125.374 40.9887 126.119 41.1455 126.903 41.1455C127.687 41.1455 128.432 40.9887 129.138 40.675C129.844 40.3613 130.432 39.9692 130.942 39.4595C131.452 38.9497 131.844 38.3224 132.157 37.6558C132.432 36.95 132.589 36.205 132.589 35.46ZM126.903 26.3632C129.06 26.3632 130.942 27.0297 132.589 28.3629V20.2855C132.589 19.815 132.746 19.3837 133.059 19.07C133.373 18.7563 133.765 18.5995 134.275 18.5995C134.745 18.5995 135.137 18.7563 135.49 19.07C135.804 19.3837 136 19.7758 136 20.2855V35.46C136 37.9695 135.098 40.1261 133.334 41.8905C131.53 43.655 129.413 44.5568 126.903 44.5568C124.394 44.5568 122.276 43.655 120.473 41.8905C118.708 40.1261 117.806 37.9695 117.806 35.46C117.806 32.9505 118.708 30.8332 120.473 29.0295C122.276 27.265 124.394 26.3632 126.903 26.3632Z" fill="white"/>
<path fill-rule="evenodd" clip-rule="evenodd" d="M37.9346 9.62034C38.5228 9.4635 39.1501 9.4635 39.7775 9.54192L30.367 6.67955C29.5436 6.44429 28.7201 6.44429 27.9751 6.60113C27.1909 6.75797 26.4851 7.11087 25.8578 7.69902L1.42963 30.4019C-0.374057 32.088 -0.49169 34.9503 1.19436 36.754C2.88042 38.5577 5.74278 38.6753 7.54647 36.9893L30.1317 16.0117L35.8172 10.7182C36.4446 10.1693 37.1896 9.77718 37.9346 9.62034Z" fill="url(#paint0_linear)"/>
<path fill-rule="evenodd" clip-rule="evenodd" d="M49.0831 11.1444C51.8279 11.811 54.8079 11.0268 56.886 9.1055L59.3171 6.8705C60.3758 5.89024 60.8463 4.55708 60.7287 3.22393C60.6502 2.40051 60.2973 1.65551 59.67 1.10656L59.6308 1.06735C57.8663 -0.461862 55.2392 -0.30502 53.5531 1.2634L44.4563 9.73287C45.9071 10.2034 47.5539 10.7916 49.0831 11.1444Z" fill="url(#paint1_linear)"/>
<path fill-rule="evenodd" clip-rule="evenodd" d="M50.1681 12.5611C49.6192 12.5218 49.0696 12.3723 48.5213 12.2082L43.2671 10.6005C42.8357 10.4829 42.2868 10.3261 41.8163 10.1692C41.1105 9.97316 40.3263 9.89474 39.6205 10.0908C38.7971 10.2476 38.0129 10.6397 37.3463 11.2279L31.5431 16.4429L43.5023 20.0895C44.1766 20.2709 44.8057 20.2709 45.5047 20.1311C46.2889 19.9743 46.9136 19.5013 47.541 18.9132L53.1873 13.659L53.7363 13.1492L56.7947 10.3261C54.991 11.9729 52.56 12.7963 50.1681 12.5611Z" fill="url(#paint2_linear)"/>
<defs>
<linearGradient id="paint0_linear" x1="-15.7706" y1="-20.6242" x2="31.068" y2="36.0368" gradientUnits="userSpaceOnUse">
<stop stop-color="#4690FF"/>
<stop offset="1" stop-color="#9966E0"/>
</linearGradient>
<linearGradient id="paint1_linear" x1="32.2926" y1="31.6199" x2="67.5818" y2="-10.4128" gradientUnits="userSpaceOnUse">
<stop offset="0.3282" stop-color="#7E4D99"/>
<stop offset="0.3436" stop-color="#7B509E"/>
<stop offset="0.4712" stop-color="#6867C1"/>
<stop offset="0.6007" stop-color="#5979DC"/>
<stop offset="0.7312" stop-color="#4F86EF"/>
<stop offset="0.8635" stop-color="#488DFB"/>
<stop offset="1" stop-color="#4690FF"/>
</linearGradient>
<linearGradient id="paint2_linear" x1="35.456" y1="-4.12727" x2="52.606" y2="29.656" gradientUnits="userSpaceOnUse">
<stop offset="0.3282" stop-color="#7E4D99"/>
<stop offset="0.3436" stop-color="#7B509E"/>
<stop offset="0.4712" stop-color="#6867C1"/>
<stop offset="0.6007" stop-color="#5979DC"/>
<stop offset="0.7312" stop-color="#4F86EF"/>
<stop offset="0.8635" stop-color="#488DFB"/>
<stop offset="1" stop-color="#4690FF"/>
</linearGradient>
</defs>
</svg>
