<svg width="32" height="32" viewBox="0 0 32 32" fill="none" xmlns="http://www.w3.org/2000/svg">
<g clip-path="url(#clip0)">
<path d="M13.8738 29.791H13.4597C13.1547 29.791 12.9075 30.0383 12.9075 30.3432C12.9075 30.6482 13.1547 30.8954 13.4597 30.8954H13.8738C14.1788 30.8954 14.426 30.6482 14.426 30.3432C14.426 30.0383 14.1788 29.791 13.8738 29.791Z" fill="#596982"/>
<path d="M26.4923 27.0746C26.4923 27.0746 26.4923 27.0746 26.4923 27.0304V25.5009C26.4907 25.0858 26.5408 24.6722 26.6414 24.2695L27.1163 22.3754C27.4433 21.0696 27.5405 19.7168 27.4034 18.3775L26.8512 14.8932C26.5861 13.2918 25.1999 12.1183 23.5767 12.1212H23.1791C23.1129 12.1223 23.0474 12.1355 22.9859 12.1598C22.4726 11.45 21.653 11.0258 20.7771 11.0168H20.4182C20.1717 11.0165 19.9284 11.0712 19.7058 11.1769C19.1997 10.3922 18.3313 9.91646 17.3977 9.91238H17.105C16.9166 9.9139 16.7298 9.94752 16.5528 10.0118V4.39043C16.5528 3.17056 15.5639 2.18165 14.344 2.18165H14.2391C13.0731 2.17916 12.1061 3.08338 12.0303 4.24686L11.2351 16.7707C10.5577 16.528 9.94281 16.1375 9.43499 15.6276L8.93802 15.1306C7.86048 14.0565 6.11706 14.0565 5.03952 15.1306L4.72477 15.4343C4.33989 15.8212 4.2953 16.4313 4.61985 16.87L5.6635 18.2726C5.85152 18.5314 6.02477 18.8006 6.18256 19.0788L6.29852 19.2997C7.57886 21.4829 9.39848 23.3006 11.583 24.5787C11.9244 24.7758 12.1348 25.1399 12.1352 25.534V27.0304C12.1341 27.0507 12.1341 27.071 12.1352 27.0912C11.4008 27.6434 11.0308 28.5269 11.0308 29.7914V31.448C11.0308 31.753 11.2781 32.0002 11.583 32.0002C11.888 32.0002 12.1352 31.753 12.1352 31.448V29.7914C12.1352 28.2011 12.7537 27.5826 14.344 27.5826H24.2835C25.9401 27.5826 26.4923 28.1348 26.4923 29.7914H15.7245C15.4195 29.7914 15.1723 30.0387 15.1723 30.3436C15.1723 30.6486 15.4195 30.8958 15.7245 30.8958C16.0294 30.8958 26.4923 30.8958 26.4923 30.8958V31.448C26.4923 31.753 26.7396 32.0002 27.0445 32.0002C27.3495 32.0002 27.5967 31.753 27.5967 31.448V29.7914C27.5967 28.4993 27.2212 27.5826 26.4923 27.0746ZM26.1168 22.1325L25.6419 24.0265C25.4968 24.5056 25.4115 25.0008 25.3879 25.5009V26.6053C25.0257 26.522 24.6552 26.4794 24.2835 26.4782H14.344C13.9722 26.4778 13.6016 26.5204 13.2396 26.6053V25.5395C13.2447 24.7453 12.8231 24.0095 12.1352 23.6124C10.1203 22.4348 8.44146 20.7597 7.25934 18.7475L7.16547 18.5487C6.98035 18.2356 6.77755 17.9332 6.55805 17.6431L5.50888 16.224L5.81259 15.9147C6.45935 15.2687 7.50714 15.2687 8.1539 15.9147L8.65088 16.4117C9.34775 17.1143 10.2097 17.6306 11.1578 17.9137L11.0861 19.0788C11.0636 19.3781 11.2844 19.6405 11.583 19.6697H11.6383C11.9307 19.6702 12.1729 19.4426 12.1904 19.1506L13.1402 4.31864C13.1781 3.7369 13.6616 3.28479 14.2446 3.28604H14.344C14.954 3.28604 15.4484 3.78046 15.4484 4.39043V13.7778C15.4484 14.0827 15.6956 14.3299 16.0006 14.3299C16.3055 14.3299 16.5528 14.0827 16.5528 13.7778V11.569C16.5528 11.264 16.8 11.0168 17.105 11.0168H17.3977C18.2291 11.0086 18.9379 11.6181 19.0542 12.4414L19.3138 14.4073C19.3526 14.6817 19.5888 14.8848 19.866 14.8821H19.9433C20.2457 14.8428 20.459 14.5658 20.4197 14.2633C20.4192 14.2597 20.4187 14.2562 20.4182 14.2526L20.1365 12.2813C20.1365 12.2813 20.1365 12.2426 20.1365 12.2206C20.2195 12.1622 20.317 12.1278 20.4182 12.1212H20.755C21.5739 12.1102 22.2779 12.6992 22.4116 13.5072L22.6269 14.976C22.6731 15.2439 22.9074 15.4383 23.1791 15.4343H23.273C23.5744 15.3876 23.7808 15.1054 23.734 14.804C23.7332 14.7988 23.7323 14.7935 23.7313 14.7883L23.4884 13.3194C23.4884 13.2863 23.4884 13.2532 23.4884 13.22H23.6154C24.7131 13.2068 25.6541 14.0018 25.8242 15.0865L26.3764 18.5432C26.498 19.7456 26.4102 20.96 26.1168 22.1325Z" fill="#596982"/>
<path fill-rule="evenodd" clip-rule="evenodd" d="M7.04998 6.04381C7.22162 6.21463 7.22162 6.49101 7.04998 6.66161C6.8765 6.83197 6.59626 6.83243 6.42278 6.66161L4.54647 4.80821C4.37482 4.63762 4.37482 4.361 4.54647 4.19018L6.42278 2.33678C6.59626 2.16619 6.8765 2.16619 7.04998 2.33678C7.22162 2.50761 7.22162 2.78399 7.04998 2.95481L5.48566 4.49908L7.04998 6.04381Z" fill="#596982"/>
<path fill-rule="evenodd" clip-rule="evenodd" d="M10.0873 6.04381C10.259 6.21463 10.259 6.49101 10.0873 6.66161C9.91385 6.83197 9.63361 6.83243 9.46013 6.66161L7.58382 4.80821C7.41217 4.63762 7.41217 4.361 7.58382 4.19018L9.46013 2.33678C9.63361 2.16619 9.91385 2.16619 10.0873 2.33678C10.259 2.50761 10.259 2.78399 10.0873 2.95481L8.52301 4.49908L10.0873 6.04381Z" fill="#596982"/>
</g>
<defs>
<clipPath id="clip0">
<rect width="32" height="32" fill="white"/>
</clipPath>
</defs>
</svg>
