<svg width="486" height="337" viewBox="0 0 486 337" fill="none" xmlns="http://www.w3.org/2000/svg">
<g clip-path="url(#clip0)">
<path opacity="0.1" d="M251.129 57.486C220.465 62.6495 189.822 60.3345 160.339 56.9912C130.856 53.6479 101.476 49.2977 70.7642 50.5111C51.0215 51.3114 29.0318 55.2227 15.2828 66.7027C2.04516 77.7525 0.0128897 92.7006 0 106.194C0 116.349 0.859311 126.848 8.00447 134.95C12.9498 140.57 20.559 144.606 26.2906 149.791C46.2438 167.833 40.2544 196.137 27.2487 220.19C21.1476 231.472 13.6802 242.565 9.53405 254.105C5.38787 265.645 4.8594 278.042 12.3526 287.495C19.777 296.863 34.1103 302.168 49.0451 304.935C79.3831 310.559 113.154 307.194 145.829 302.603C218.162 292.444 289.738 276.45 361.121 260.495C387.536 254.587 414.067 248.653 439.516 240.108C453.647 235.375 468.032 229.424 477.145 220.173C488.711 208.422 488.978 192.355 477.768 182.738C458.962 166.572 416.49 170.049 401.934 151.59C393.921 141.392 397.366 127.623 403.691 115.489C417.264 89.4218 443.563 63.7037 440.074 37.6757C437.677 19.8016 419.666 4.97392 395.566 1.10135C370.307 -2.99497 337.898 4.57376 323.384 22.5124C308.479 40.9673 278.206 52.9336 251.129 57.486Z" fill="white"/>
<path d="M367.218 46.0795C366.698 47.749 366.174 49.4185 365.499 51.0407C364.345 53.8599 362.889 56.5449 361.155 59.0483C360.029 60.696 358.818 62.2844 357.529 63.8073C355.913 65.7134 354.113 67.6325 353.542 70.0679C353.211 71.475 353.323 72.9466 353.181 74.3708C353.039 75.7951 352.579 77.3312 351.415 78.1917C350.586 78.807 349.524 78.9921 348.506 79.1556C347.776 79.2718 346.865 79.3062 346.482 78.6737C346.354 78.4142 346.286 78.1286 346.285 77.8389L346.109 75.7348C346.07 75.283 345.911 74.6978 345.456 74.6763C345 74.6548 344.772 75.2615 344.386 75.5369C343.87 75.8983 343.097 75.5369 342.813 74.9904C342.578 74.4004 342.561 73.7458 342.766 73.1445C343.079 71.9464 343.643 70.8285 344.419 69.8643C345.195 68.9002 346.166 68.1116 347.269 67.5508C348.034 67.2402 348.768 66.8569 349.46 66.4062C350.163 65.7939 350.746 65.0555 351.179 64.229C355.166 57.6542 359.174 51.045 361.984 43.8893C362.541 42.6127 362.917 41.2643 363.102 39.8834C363.239 38.472 363.02 37.0607 362.93 35.6451C362.764 33.1114 362.997 30.5674 363.621 28.1065C363.759 27.4584 364.003 26.8376 364.343 26.2691C365.503 24.5093 368.21 24.2468 369.929 25.4645C370.562 25.9513 371.088 26.5651 371.471 27.2668C371.854 27.9684 372.087 28.7424 372.154 29.5393C372.279 30.9636 371.458 32.4437 371.042 33.7733C369.767 37.8811 368.492 41.9832 367.218 46.0795Z" fill="#A1616A"/>
<path opacity="0.05" d="M367.218 46.0795C366.698 47.749 366.174 49.4185 365.499 51.0407C364.345 53.8599 362.889 56.5449 361.155 59.0483C360.029 60.696 358.818 62.2844 357.529 63.8073C355.913 65.7134 354.113 67.6325 353.542 70.0679C353.211 71.475 353.323 72.9466 353.181 74.3708C353.039 75.7951 352.579 77.3312 351.415 78.1917C350.586 78.807 349.524 78.9921 348.506 79.1556C347.776 79.2718 346.865 79.3062 346.482 78.6737C346.354 78.4142 346.286 78.1286 346.285 77.8389L346.109 75.7348C346.07 75.283 345.911 74.6978 345.456 74.6763C345 74.6548 344.772 75.2615 344.386 75.5369C343.87 75.8983 343.097 75.5369 342.813 74.9904C342.578 74.4004 342.561 73.7458 342.766 73.1445C343.079 71.9464 343.643 70.8285 344.419 69.8643C345.195 68.9002 346.166 68.1116 347.269 67.5508C348.034 67.2402 348.768 66.8569 349.46 66.4062C350.163 65.7939 350.746 65.0555 351.179 64.229C355.166 57.6542 359.174 51.045 361.984 43.8893C362.541 42.6127 362.917 41.2643 363.102 39.8834C363.239 38.472 363.02 37.0607 362.93 35.6451C362.764 33.1114 362.997 30.5674 363.621 28.1065C363.759 27.4584 364.003 26.8376 364.343 26.2691C365.503 24.5093 368.21 24.2468 369.929 25.4645C370.562 25.9513 371.088 26.5651 371.471 27.2668C371.854 27.9684 372.087 28.7424 372.154 29.5393C372.279 30.9636 371.458 32.4437 371.042 33.7733C369.767 37.8811 368.492 41.9832 367.218 46.0795Z" fill="black"/>
<path d="M392.266 116.379C391.488 116.647 390.662 116.745 389.843 116.668C389.783 115.996 388.881 115.846 388.211 115.88C387.886 115.87 387.565 115.944 387.278 116.095C387.111 116.203 386.982 116.362 386.818 116.47C386.528 116.631 386.201 116.716 385.869 116.715L382.38 117.008C380.825 117.141 379.205 117.266 377.748 116.706C377.458 116.616 377.199 116.442 377.005 116.207C376.61 115.639 377.005 114.826 377.551 114.417C378.096 114.009 378.801 113.815 379.351 113.393C380.563 112.468 380.73 110.738 381.37 109.357C381.823 108.481 382.384 107.665 383.042 106.93C383.515 106.299 384.068 105.732 384.687 105.244C386.084 104.228 387.695 104.25 389.341 104.103C390.501 104 391.592 103.936 392.425 104.964C393.452 106.255 393.044 108.836 392.98 110.347C392.899 112.373 392.661 114.39 392.266 116.379Z" fill="#514E7F"/>
<path opacity="0.05" d="M392.266 116.379C391.488 116.647 390.662 116.745 389.843 116.668C389.783 115.996 388.881 115.846 388.211 115.88C387.886 115.87 387.565 115.944 387.278 116.095C387.111 116.203 386.982 116.362 386.818 116.47C386.528 116.631 386.201 116.716 385.869 116.715L382.38 117.008C380.825 117.141 379.205 117.266 377.748 116.706C377.458 116.616 377.199 116.442 377.005 116.207C376.61 115.639 377.005 114.826 377.551 114.417C378.096 114.009 378.801 113.815 379.351 113.393C380.563 112.468 380.73 110.738 381.37 109.357C381.823 108.481 382.384 107.665 383.042 106.93C383.515 106.299 384.068 105.732 384.687 105.244C386.084 104.228 387.695 104.25 389.341 104.103C390.501 104 391.592 103.936 392.425 104.964C393.452 106.255 393.044 108.836 392.98 110.347C392.899 112.373 392.661 114.39 392.266 116.379Z" fill="black"/>
<path d="M390.857 48.4116C391.923 48.7558 392.387 50.0854 392.189 51.1955C391.991 52.3057 391.33 53.2523 390.784 54.2334C389.229 57.0173 388.559 60.2014 387.252 63.1058C386.277 65.2788 384.958 67.2839 383.991 69.4612C383.025 71.6384 382.436 74.0954 383.016 76.4017C383.304 77.5247 383.875 78.5531 384.219 79.659C384.581 80.8575 384.817 82.0905 384.924 83.3379C385.397 87.5753 385.482 91.8472 385.177 96.1002C385.175 96.6187 385.067 97.1312 384.859 97.6062C384.64 98.0365 384.262 98.4668 384.43 98.897C384.503 99.0735 384.657 99.2025 384.739 99.3747C384.962 99.8566 384.515 100.369 384.107 100.713C384.18 100.843 384.277 100.956 384.395 101.047C384.512 101.138 384.647 101.205 384.79 101.242C384.497 101.429 384.272 101.706 384.147 102.031C384.022 102.357 384.006 102.714 384.099 103.049C384.464 103.101 384.485 103.66 384.258 103.949C384.03 104.237 383.669 104.422 383.506 104.753C383.41 105.023 383.42 105.32 383.535 105.582C383.65 105.844 383.861 106.053 384.125 106.165C384.661 106.374 385.247 106.418 385.809 106.294C386.772 106.164 387.723 105.958 388.653 105.678C388.96 105.6 389.251 105.467 389.512 105.287C389.979 104.832 390.257 104.217 390.29 103.566C390.503 101.814 390.567 100.048 390.483 98.286C390.329 89.7492 390.483 81.2037 390.853 72.6711C391.003 69.2288 392.034 65.8941 393.358 62.7272C394.094 61.1023 394.912 59.5154 395.807 57.9725C397.714 54.4743 399.394 50.6017 398.965 46.6087C398.918 46.1784 398.759 45.6664 398.337 45.5975C398.171 45.5796 398.003 45.6079 397.852 45.6793C396.968 46.0919 396.114 46.5649 395.296 47.0949C393.944 47.8862 392.421 48.3379 390.857 48.4116Z" fill="#464353"/>
<path opacity="0.05" d="M390.857 48.4116C391.923 48.7558 392.387 50.0854 392.189 51.1955C391.991 52.3057 391.33 53.2523 390.784 54.2334C389.229 57.0173 388.559 60.2014 387.252 63.1058C386.277 65.2788 384.958 67.2839 383.991 69.4612C383.025 71.6384 382.436 74.0954 383.016 76.4017C383.304 77.5247 383.875 78.5531 384.219 79.659C384.581 80.8575 384.817 82.0905 384.924 83.3379C385.397 87.5753 385.482 91.8472 385.177 96.1002C385.175 96.6187 385.067 97.1312 384.859 97.6062C384.64 98.0365 384.262 98.4668 384.43 98.897C384.503 99.0735 384.657 99.2025 384.739 99.3747C384.962 99.8566 384.515 100.369 384.107 100.713C384.18 100.843 384.277 100.956 384.395 101.047C384.512 101.138 384.647 101.205 384.79 101.242C384.497 101.429 384.272 101.706 384.147 102.031C384.022 102.357 384.006 102.714 384.099 103.049C384.464 103.101 384.485 103.66 384.258 103.949C384.03 104.237 383.669 104.422 383.506 104.753C383.41 105.023 383.42 105.32 383.535 105.582C383.65 105.844 383.861 106.053 384.125 106.165C384.661 106.374 385.247 106.418 385.809 106.294C386.772 106.164 387.723 105.958 388.653 105.678C388.96 105.6 389.251 105.467 389.512 105.287C389.979 104.832 390.257 104.217 390.29 103.566C390.503 101.814 390.567 100.048 390.483 98.286C390.329 89.7492 390.483 81.2037 390.853 72.6711C391.003 69.2288 392.034 65.8941 393.358 62.7272C394.094 61.1023 394.912 59.5154 395.807 57.9725C397.714 54.4743 399.394 50.6017 398.965 46.6087C398.918 46.1784 398.759 45.6664 398.337 45.5975C398.171 45.5796 398.003 45.6079 397.852 45.6793C396.968 46.0919 396.114 46.5649 395.296 47.0949C393.944 47.8862 392.421 48.3379 390.857 48.4116Z" fill="black"/>
<path d="M405.263 38.0373C405.818 37.6767 406.459 37.473 407.12 37.4478C407.884 37.4865 408.537 37.9899 409.135 38.4718C409.842 39.0157 410.514 39.605 411.145 40.236C412.451 41.6334 413.36 43.3541 413.78 45.2208C414.2 47.0875 414.115 49.0326 413.534 50.8555C412.903 52.753 411.747 54.4268 410.604 56.0662L408.284 59.4053C404.744 64.4955 401.203 69.5858 397.495 74.5556C397.495 74.6778 397.455 74.7966 397.382 74.8948C397.31 74.993 397.208 75.0656 397.091 75.1021C396.954 75.1365 396.791 75.1322 396.709 75.2441C396.673 75.3143 396.656 75.3932 396.662 75.4721C396.67 75.8411 396.74 76.206 396.868 76.5521C396.928 76.6641 396.944 76.7949 396.911 76.9179C396.791 77.1976 396.284 77.0427 396.12 77.3008C396.013 77.473 396.146 77.6967 396.288 77.843C396.43 77.9893 396.606 78.1528 396.58 78.355C396.554 78.5573 396.202 78.7853 396.215 79.0349C396.215 79.1812 396.344 79.2931 396.434 79.4092C396.56 79.5944 396.618 79.818 396.597 80.0413C396.576 80.2645 396.477 80.4732 396.318 80.6313C396.073 83.0581 397.392 85.3644 397.654 87.7826C398.084 91.6036 396.344 95.3341 396.133 99.168C396.146 99.5994 396.064 100.028 395.893 100.424C395.536 101.087 394.604 101.487 394.651 102.24C394.718 102.549 394.804 102.854 394.909 103.152C394.982 103.583 394.78 104.013 394.771 104.443C394.763 104.874 395.141 105.403 395.549 105.235C395.245 106.248 394.975 107.27 394.737 108.303L386.616 108.974C386.529 108.243 386.554 107.503 386.69 106.78C386.853 105.997 387.209 105.261 387.394 104.482C387.514 104.098 387.548 103.693 387.492 103.295C387.436 102.897 387.293 102.516 387.072 102.18C387.284 102.184 387.491 102.112 387.655 101.977C387.82 101.842 387.931 101.653 387.97 101.444C388.045 101.026 388.045 100.597 387.97 100.179C387.755 98.0578 388.644 95.9667 388.614 93.8367C388.593 92.1586 388.004 90.5494 387.708 88.8971C387.072 85.3687 387.734 81.5435 386.165 78.3249C385.216 76.38 383.901 74.2286 384.967 72.3483C385.491 71.4188 386.419 70.782 387.025 69.9042C387.518 69.0758 387.888 68.18 388.125 67.2451C389.375 63.3725 391.399 59.771 393.173 56.092C393.655 55.174 394.014 54.1959 394.239 53.1833C394.365 52.2885 394.409 51.384 394.372 50.4811C394.375 48.8558 394.476 47.2322 394.673 45.6189C394.713 44.9128 394.914 44.2253 395.261 43.6095C395.612 43.1442 396.05 42.7512 396.55 42.452C399.214 40.5974 402.402 39.5519 405.263 38.0373Z" fill="#464353"/>
<path d="M395.528 119.357C394.748 119.624 393.92 119.722 393.1 119.645C393.04 118.978 392.142 118.823 391.472 118.858C391.146 118.848 390.823 118.922 390.535 119.073C390.372 119.181 390.243 119.34 390.075 119.447C389.785 119.609 389.458 119.694 389.126 119.693L385.641 119.989C384.082 120.119 382.466 120.243 381.005 119.684C380.714 119.596 380.456 119.422 380.266 119.185C379.867 118.617 380.266 117.808 380.812 117.395C381.358 116.982 382.062 116.792 382.608 116.375C383.819 115.446 383.987 113.72 384.631 112.335C385.081 111.459 385.642 110.645 386.299 109.912C386.774 109.282 387.327 108.714 387.944 108.221C389.345 107.206 390.952 107.227 392.597 107.085C393.762 106.978 394.853 106.913 395.682 107.946C396.713 109.237 396.301 111.818 396.241 113.329C396.16 115.354 395.922 117.369 395.528 119.357Z" fill="#514E7F"/>
<path d="M359.54 23.9498C363.982 23.9498 367.583 20.3434 367.583 15.8948C367.583 11.4462 363.982 7.83984 359.54 7.83984C355.098 7.83984 351.496 11.4462 351.496 15.8948C351.496 20.3434 355.098 23.9498 359.54 23.9498Z" fill="#A1616A"/>
<path d="M367.123 18.2871C368.279 19.2811 369.933 19.3585 371.445 19.5134C374.68 19.8414 377.828 20.7525 380.739 22.2027C381.143 22.3736 381.509 22.6254 381.813 22.9428C382.074 23.2825 382.26 23.6742 382.359 24.0917C382.633 24.9983 382.737 25.9483 382.664 26.8928C382.558 27.8103 382.295 28.7026 381.886 29.5305C380.768 31.8426 379.046 33.8084 376.902 35.2189C376.524 35.5009 376.095 35.7069 375.639 35.8256C374.582 36.045 373.559 35.434 372.515 35.1586C371.565 34.91 370.564 34.9429 369.632 35.2533C368.773 35.5416 367.832 36.0795 366.981 35.7223C366.437 35.4158 366.013 34.9312 365.783 34.3497C364.96 32.7905 364.227 31.1858 363.587 29.5434C363.358 28.905 363.092 28.28 362.792 27.6717C361.86 25.8903 360.249 24.5177 359.445 22.676C359.363 22.5348 359.313 22.3768 359.299 22.2137C359.286 22.0506 359.309 21.8866 359.368 21.7337C359.52 21.5359 359.726 21.3864 359.961 21.3034C361.15 20.6173 362.233 19.7605 363.175 18.7604C363.703 18.257 364.674 16.8801 365.435 16.7639C366.311 16.609 366.547 17.788 367.123 18.2871Z" fill="#A1616A"/>
<path d="M366.938 34.6553C367.871 35.0856 368.966 34.9005 369.98 34.6897C372.584 34.1475 375.218 33.5925 377.628 32.4651C378.381 32.1765 379.034 31.674 379.506 31.0194C379.8 30.4598 379.978 29.8466 380.03 29.2165L380.459 26.2045C380.614 25.1589 380.343 24.1907 380.322 23.1322C380.306 23.0149 380.313 22.8955 380.343 22.781C380.373 22.6665 380.426 22.5591 380.498 22.4653C380.57 22.4041 380.654 22.3578 380.744 22.329C380.834 22.3002 380.928 22.2895 381.022 22.2975C382.234 22.2975 382.964 23.5883 383.811 24.4489C384.301 24.9434 384.885 25.3341 385.529 25.5978C386.299 25.9162 387.248 26.1399 387.57 26.9144C387.699 27.2371 387.682 27.6029 387.819 27.9256C388.361 29.2165 390.668 28.7862 391.257 30.077C391.42 30.4385 391.411 30.8903 391.686 31.1743C391.961 31.4583 392.477 31.454 392.902 31.5228C394.578 31.7982 395.394 33.7431 396.829 34.6596C398.037 35.4298 399.592 35.4126 400.89 36.015C401.616 36.3506 402.256 36.8756 403.038 37.095C403.82 37.3144 404.666 37.1983 405.487 37.2198C405.574 37.2115 405.663 37.2214 405.746 37.2488C405.83 37.2762 405.907 37.3205 405.972 37.379C406.023 37.457 406.057 37.5449 406.071 37.6369C406.085 37.729 406.079 37.8229 406.054 37.9125C405.656 40.4573 404.602 42.8543 402.998 44.8673C401.393 46.8803 399.292 48.44 396.902 49.3926C396.627 49.4818 396.365 49.6093 396.125 49.7712C395.394 50.3177 395.265 51.4924 394.436 51.8796C394.137 51.9851 393.814 52.0056 393.504 51.9387C393.194 51.8719 392.908 51.7204 392.679 51.501C392.221 51.0598 391.791 50.5914 391.39 50.0983C390.633 49.3062 389.639 48.7822 388.559 48.6052C387.562 48.446 386.445 48.5621 385.641 47.9511C385.312 47.6448 385.005 47.3156 384.722 46.9658C384.121 46.4072 383.41 45.9819 382.634 45.7179C380.516 44.8805 378.277 44.3894 376.004 44.2636C373.89 44.1474 371.707 44.3367 369.71 43.6483C369.189 43.4884 368.709 43.2168 368.305 42.8522C367.873 42.387 367.552 41.8293 367.368 41.2214C366.638 39.1112 366.49 36.8429 366.938 34.6553Z" fill="white"/>
<path d="M377.302 22.7836C376.709 22.732 376.116 22.8051 375.518 22.7836C374.818 22.7836 374.126 22.6115 373.426 22.6072C372.317 22.626 371.243 22.9988 370.361 23.6714C369.478 24.3439 368.833 25.2811 368.519 26.3464C368.46 26.5165 368.45 26.6998 368.489 26.8756C368.512 26.9624 368.566 27.038 368.64 27.0885C368.714 27.1391 368.804 27.1613 368.893 27.151C369.127 26.5159 369.429 25.9084 369.796 25.3395C370.465 24.4309 371.415 23.7686 372.498 23.4548C373.578 23.1506 374.716 23.1093 375.815 23.3344C376.27 23.4204 376.722 23.5452 377.168 23.6657L379.317 24.2595C379.712 24.367 380.107 24.4746 380.494 24.6166C380.79 24.7285 381.297 25.1373 381.59 25.1545C381.985 25.1545 381.663 24.8102 381.486 24.5779C381.138 24.0992 380.648 23.7424 380.086 23.5581C379.192 23.188 378.258 22.9279 377.302 22.7836Z" fill="white"/>
<path d="M371.897 46.9787C371.377 48.6482 370.857 50.322 370.204 51.9442C369.036 54.7652 367.566 57.4502 365.817 59.9518C364.691 61.5994 363.48 63.1879 362.191 64.7108C360.575 66.6169 358.753 68.536 358.203 70.9714C357.873 72.3784 357.984 73.85 357.847 75.2743C357.709 76.6985 357.241 78.2346 356.081 79.0952C355.247 79.7105 354.186 79.8955 353.168 80.0547C352.442 80.1752 351.531 80.2097 351.148 79.5771C351.018 79.318 350.949 79.0324 350.947 78.7424L350.775 76.6383C350.736 76.208 350.573 75.6013 350.122 75.5798C349.67 75.5583 349.434 76.165 349.047 76.4403C348.532 76.8018 347.758 76.4403 347.475 75.8939C347.239 75.3023 347.224 74.6456 347.432 74.0437C347.745 72.8462 348.308 71.7287 349.083 70.7647C349.859 69.8006 350.829 69.0117 351.93 68.4499C352.696 68.1368 353.431 67.7536 354.126 67.3054C354.829 66.6932 355.412 65.9548 355.845 65.1281C359.832 58.5534 363.84 51.9442 366.655 44.7885C367.209 43.5098 367.584 42.1601 367.768 40.7782C367.905 39.3712 367.69 37.9556 367.596 36.5442C367.429 34.0103 367.664 31.4659 368.292 29.0056C368.428 28.357 368.672 27.7359 369.014 27.1683C370.169 25.4084 372.88 25.146 374.599 26.3637C375.232 26.851 375.758 27.4649 376.142 28.1663C376.526 28.8678 376.76 29.6416 376.829 30.4385C376.954 31.8627 376.129 33.3429 375.716 34.6725C374.439 38.7774 373.165 42.8795 371.897 46.9787Z" fill="#A1616A"/>
<path d="M347.836 10.202C347.771 9.5308 348.373 8.91119 349.056 8.48091C349.775 8.10163 350.466 7.6702 351.123 7.19005C351.733 6.6608 352.064 5.97664 352.678 5.44309C353.369 4.91399 354.155 4.52253 354.994 4.28992C356.779 3.66095 358.653 3.32247 360.545 3.28735C362.461 3.28735 364.412 3.71764 365.856 4.69439C366.207 4.91416 366.513 5.19892 366.758 5.53345C366.985 5.94652 367.131 6.39931 367.187 6.86733C367.53 8.31103 367.995 9.72309 368.575 11.0884C369.173 12.6073 369.808 14.1822 371.213 15.3569C372.717 16.609 375.016 17.3319 376.008 18.8508C376.117 18.9851 376.194 19.1427 376.232 19.3113C376.27 19.48 376.268 19.6552 376.227 19.8232C376.086 20.2105 375.63 20.4687 375.209 20.7096C372.764 22.1124 370.663 23.9325 369.576 26.1054C368.489 28.2784 368.528 30.8386 370.07 32.8394C370.638 33.5795 371.42 34.4573 370.865 35.2017C370.006 36.3333 367.132 35.6836 366.461 36.8841C366.251 37.2627 366.375 37.7016 366.371 38.1147C366.371 39.3711 365.168 40.4856 363.703 41.0665C362.238 41.6473 360.541 41.785 358.891 41.8582C358.453 40.8722 358.41 39.7555 358.771 38.7386C358.88 38.5206 358.923 38.2753 358.895 38.0329C358.774 37.7599 358.583 37.5238 358.341 37.3488C356.579 35.6836 356.949 33.2267 358.01 31.243C359.071 29.2594 360.717 27.4479 361.331 25.361C361.632 24.324 361.636 23.158 360.811 22.3017C360.342 21.8864 359.836 21.5148 359.299 21.1916C358.337 20.5392 357.597 19.6086 357.177 18.5238C356.682 17.1512 356.747 15.5118 355.312 14.591C353.933 13.7304 351.995 13.9757 350.47 13.3862C349.301 12.9688 347.935 11.1831 347.836 10.202Z" fill="#464353"/>
<path d="M204.486 46.5526C204.163 50.0681 206.819 53.4803 206.045 56.9225C205.878 57.6583 205.564 58.3554 205.448 59.0998C205.126 61.1436 206.342 63.0756 207.506 64.7882L217.487 79.4609C217.89 80.1044 218.369 80.6967 218.914 81.2251C220.826 82.9462 223.687 82.744 226.192 83.256C227.954 83.6118 229.617 84.3458 231.068 85.4075C231.101 85.4313 231.129 85.4614 231.15 85.496C231.171 85.5306 231.185 85.5691 231.191 85.6091C231.197 85.6491 231.195 85.69 231.185 85.7292C231.175 85.7685 231.157 85.8054 231.133 85.8378C230.721 86.4056 230.173 86.8608 229.539 87.1615C228.905 87.4622 228.207 87.5988 227.507 87.5589C227.245 87.9031 227.507 88.4195 227.868 88.6604C228.405 89.0348 229.157 89.1338 229.251 90.0417C229.285 90.3589 229.221 90.6791 229.066 90.9582C228.664 91.574 228.039 92.0091 227.322 92.1716C223.885 93.2301 220.129 91.3712 217.543 88.8412C214.956 86.3111 213.1 83.1184 210.561 80.5409C209.156 79.1167 207.553 77.899 206.11 76.5178C203.223 73.7596 200.975 70.412 198.806 67.0515C198.096 66.077 197.561 64.9865 197.225 63.8286C196.958 62.6884 197.078 61.475 196.769 60.3433C196.365 58.8545 195.283 57.6712 194.376 56.4234C192.606 53.9794 191.424 50.9932 191.656 47.9812C191.888 44.9692 193.753 41.9959 196.597 40.9847C197.476 40.6338 198.445 40.575 199.36 40.8169C200.52 41.1741 201.375 42.1379 202.174 43.0587L204.065 45.2532C204.541 45.7334 204.916 46.3039 205.169 46.9313C205.29 47.2469 205.319 47.5908 205.25 47.922C205.181 48.2532 205.019 48.5576 204.782 48.7987" fill="#FBBEBE"/>
<path opacity="0.05" d="M204.486 46.5526C204.163 50.0681 206.819 53.4803 206.045 56.9225C205.878 57.6583 205.564 58.3554 205.448 59.0998C205.126 61.1436 206.342 63.0756 207.506 64.7882L217.487 79.4609C217.89 80.1044 218.369 80.6967 218.914 81.2251C220.826 82.9462 223.687 82.744 226.192 83.256C227.954 83.6118 229.617 84.3458 231.068 85.4075C231.101 85.4313 231.129 85.4614 231.15 85.496C231.171 85.5306 231.185 85.5691 231.191 85.6091C231.197 85.6491 231.195 85.69 231.185 85.7292C231.175 85.7685 231.157 85.8054 231.133 85.8378C230.721 86.4056 230.173 86.8608 229.539 87.1615C228.905 87.4622 228.207 87.5988 227.507 87.5589C227.245 87.9031 227.507 88.4195 227.868 88.6604C228.405 89.0348 229.157 89.1338 229.251 90.0417C229.285 90.3589 229.221 90.6791 229.066 90.9582C228.664 91.574 228.039 92.0091 227.322 92.1716C223.885 93.2301 220.129 91.3712 217.543 88.8412C214.956 86.3111 213.1 83.1184 210.561 80.5409C209.156 79.1167 207.553 77.899 206.11 76.5178C203.223 73.7596 200.975 70.412 198.806 67.0515C198.096 66.077 197.561 64.9865 197.225 63.8286C196.958 62.6884 197.078 61.475 196.769 60.3433C196.365 58.8545 195.283 57.6712 194.376 56.4234C192.606 53.9794 191.424 50.9932 191.656 47.9812C191.888 44.9692 193.753 41.9959 196.597 40.9847C197.476 40.6338 198.445 40.575 199.36 40.8169C200.52 41.1741 201.375 42.1379 202.174 43.0587L204.065 45.2532C204.541 45.7334 204.916 46.3039 205.169 46.9313C205.29 47.2469 205.319 47.5908 205.25 47.922C205.181 48.2532 205.019 48.5576 204.782 48.7987" fill="black"/>
<path d="M196.932 137.042C199.111 138.371 201.826 138.453 204.361 138.143C204.769 138.092 205.255 138.062 205.517 138.376C205.895 138.836 205.448 139.507 204.984 139.877C203.487 141.002 201.729 141.726 199.876 141.982C198.222 142.215 196.553 142.326 194.883 142.313C190.329 142.39 185.748 142.468 181.237 141.809C180.977 141.791 180.724 141.717 180.494 141.594C180.207 141.387 180.006 141.08 179.931 140.734C179.622 139.563 180.219 138.298 181.117 137.485C182.015 136.672 183.171 136.194 184.296 135.764L188.262 134.219C189.19 133.858 190.681 132.894 191.699 132.967C193.56 133.113 195.356 136.117 196.932 137.042Z" fill="#3F3D56"/>
<path opacity="0.05" d="M196.932 137.042C199.111 138.371 201.826 138.453 204.361 138.143C204.769 138.092 205.255 138.062 205.517 138.376C205.895 138.836 205.448 139.507 204.984 139.877C203.487 141.002 201.729 141.726 199.876 141.982C198.222 142.215 196.553 142.326 194.883 142.313C190.329 142.39 185.748 142.468 181.237 141.809C180.977 141.791 180.724 141.717 180.494 141.594C180.207 141.387 180.006 141.08 179.931 140.734C179.622 139.563 180.219 138.298 181.117 137.485C182.015 136.672 183.171 136.194 184.296 135.764L188.262 134.219C189.19 133.858 190.681 132.894 191.699 132.967C193.56 133.113 195.356 136.117 196.932 137.042Z" fill="black"/>
<path d="M194.165 84.3489C195.811 86.5476 197.521 89.082 197.113 91.8057C196.894 93.273 196.073 94.5681 195.472 95.9235C194.719 97.7885 194.162 99.7265 193.809 101.707C193.19 104.585 192.571 107.472 192.193 110.394C191.764 113.694 193.787 123.247 193.976 126.569C194.019 127.369 194.114 128.238 194.668 128.815C194.887 129.043 195.179 129.245 195.274 129.525C195.334 129.811 195.288 130.109 195.145 130.364C194.213 132.463 192.309 134.025 190.195 134.92C188.082 135.815 182.939 137.356 180.644 137.433C180.34 137.469 180.031 137.429 179.746 137.317C179.438 137.13 179.194 136.852 179.05 136.521C177.396 133.346 178.986 122.055 178.96 118.475C178.96 115.484 178.234 112.515 178.367 109.529C178.47 107.133 179.11 104.796 179.347 102.404C179.729 98.4838 179.007 94.5509 178.29 90.6784C177.74 87.7137 177.185 84.7447 176.481 81.8102C176.051 80.0245 175.553 78.2173 174.569 76.6467C173.791 75.4118 172.734 74.3834 171.849 73.226C169.384 69.9918 168.288 65.916 168.799 61.8793C168.85 61.4792 174.526 63.3165 175.016 63.5316C177.051 64.3984 178.924 65.6061 180.554 67.103C181.843 68.3508 182.9 70.0246 184.047 71.4274C185.671 73.4067 187.274 75.4032 188.855 77.417C190.651 79.7147 192.421 82.0253 194.165 84.3489Z" fill="#464353"/>
<path opacity="0.05" d="M194.165 84.2155C195.811 86.4186 197.521 88.9486 197.113 91.6766C196.894 93.1439 196.073 94.4348 195.472 95.7902C194.719 97.6551 194.162 99.5932 193.809 101.573C193.19 104.456 192.571 107.339 192.193 110.261C191.764 113.565 193.787 123.113 193.976 126.439C194.019 127.24 194.114 128.109 194.668 128.686C194.887 128.909 195.179 129.094 195.274 129.391C195.334 129.677 195.288 129.975 195.145 130.23C194.213 132.33 192.309 133.896 190.195 134.791C188.082 135.686 182.939 136.512 180.644 136.581C180.34 136.617 180.031 136.577 179.746 136.465C179.438 136.278 179.194 136 179.05 135.669C177.396 132.494 178.986 121.921 178.96 118.341C178.96 115.351 178.234 112.386 178.367 109.396C178.47 106.999 179.11 104.663 179.347 102.27C179.729 98.3547 179.007 94.4176 178.29 90.5493C177.74 87.5803 177.185 84.6114 176.481 81.6811C176.051 79.8911 175.553 78.0839 174.569 76.5177C173.791 75.2871 172.734 74.2544 171.849 73.1012C169.383 69.8659 168.287 65.7883 168.799 61.7503C168.85 61.3544 174.526 63.1917 175.016 63.4069C177.053 64.2704 178.926 65.4785 180.554 66.9782C181.843 68.2261 182.9 69.8999 184.047 71.2811C185.671 73.2604 187.274 75.2569 188.855 77.2707C190.651 79.5713 192.421 81.8862 194.165 84.2155Z" fill="black"/>
<path d="M212.507 35.9375C217.616 35.9375 221.758 31.7899 221.758 26.6735C221.758 21.5571 217.616 17.4094 212.507 17.4094C207.398 17.4094 203.257 21.5571 203.257 26.6735C203.257 31.7899 207.398 35.9375 212.507 35.9375Z" fill="#FBBEBE"/>
<path d="M204.181 26.2861C203.328 27.6533 202.209 28.8346 200.891 29.7594C199.572 30.6842 198.081 31.3336 196.507 31.669L197.203 34.1947C198.406 38.5535 199.755 43.1619 203.119 46.1825C202.75 44.7066 203.227 43.1232 204.056 41.8495C204.949 40.6156 206.005 39.5096 207.197 38.5621L212.52 33.9237C212.681 33.8086 212.817 33.6622 212.92 33.4934C213.051 33.1676 213.051 32.8037 212.92 32.4779C212.241 30.3652 210.303 29.0356 208.739 27.62C207.948 26.8797 207.24 26.0543 206.63 25.1587C205.538 23.6355 204.881 25.1544 204.181 26.2861Z" fill="#FBBEBE"/>
<path d="M224.697 17.3621L224.903 15.6409C223.442 16.0196 222.059 14.7804 221.126 13.4895C220.194 12.1987 219.326 10.684 217.904 10.1505C216.185 9.50076 214.346 10.5421 212.696 11.4026C210.847 12.4341 208.816 13.0988 206.716 13.3604C206.381 13.3739 206.049 13.4288 205.727 13.5239C204.653 13.9069 204.146 15.2451 203.987 16.48C203.828 17.7149 203.876 19.0058 203.343 20.0987C202.943 20.9249 202.252 21.5445 201.83 22.3577C200.7 24.5479 201.792 27.5427 200.597 29.6941L203.562 26.9747C203.837 26.7251 204.219 26.4626 204.516 26.6735C204.812 26.8843 204.774 27.2027 204.868 27.4953C205.156 28.3559 206.213 28.5926 206.982 28.2612C207.751 27.9299 208.305 27.1984 208.864 26.5401C210.174 24.9911 211.738 23.6314 213.59 22.9687C214.393 22.6602 215.253 22.5272 216.112 22.5784C216.971 22.6296 217.809 22.8639 218.57 23.2656C219.953 24.0487 220.967 25.8731 222.664 25.9377C224.989 26.0237 225.956 21.6908 227.03 19.9782C226.637 19.6806 226.361 19.2546 226.25 18.7743C226.138 18.294 226.198 17.7897 226.42 17.3492C226.243 17.276 224.727 17.0953 224.697 17.3621Z" fill="#464353"/>
<path d="M186.144 136.964C187.969 138.602 190.345 139.489 192.795 139.447C193.418 139.447 194.281 139.568 194.286 140.192C194.271 140.377 194.208 140.555 194.101 140.708C193.327 142.001 192.103 142.96 190.664 143.402C189.327 143.806 187.905 143.741 186.513 143.668L182.453 143.458C181.684 143.419 180.915 143.376 180.15 143.285C179.385 143.195 178.56 143.027 177.765 142.911C175.807 142.631 173.826 142.537 171.849 142.631C171.329 142.653 170.719 142.631 170.397 142.24C170.075 141.848 170.247 141.125 170.363 140.553C170.603 139.374 170.363 138.139 170.586 136.956C170.977 134.882 172.76 133.29 174.732 132.537C176.558 131.84 179.798 131.044 181.525 132.201C183.39 133.449 184.502 135.48 186.144 136.964Z" fill="#3F3D56"/>
<path d="M182.122 67.4259C181.761 69.147 180.111 70.4379 180.064 72.1805C180.025 73.5746 181.018 74.7622 181.731 75.9412C182.413 77.1806 182.988 78.4762 183.45 79.8138C184.802 83.2791 186.478 86.6085 188.455 89.7577C189.409 91.268 190.475 92.9117 190.256 94.6888C190.106 95.5181 189.815 96.3156 189.396 97.0468L186.539 102.731C185.912 103.866 185.423 105.072 185.083 106.324C184.833 107.404 184.808 108.522 184.653 109.624C184.202 113.109 182.569 116.62 183.536 120.003C183.617 120.291 183.922 120.644 184.146 120.433C183.205 122.197 182.427 123.978 182.517 125.979C182.556 127.029 182.878 128.131 182.487 129.103C182.269 129.483 182.123 129.9 182.058 130.334C182.058 130.622 182.191 130.893 182.221 131.194C182.303 131.999 181.564 132.67 180.799 132.915C180.034 133.161 179.196 133.156 178.423 133.384C176.936 133.815 175.875 135.106 174.599 136.001C173.308 136.898 171.783 137.396 170.212 137.433C169.988 137.457 169.762 137.412 169.563 137.304C169.451 137.206 169.361 137.085 169.299 136.949C169.237 136.813 169.204 136.666 169.202 136.517C169.135 135.804 169.243 135.086 169.517 134.425C169.791 133.764 170.223 133.181 170.775 132.726C171.016 132.573 171.217 132.363 171.359 132.115C171.428 131.894 171.446 131.66 171.411 131.431C171.179 128.304 171.235 125.163 171.578 122.046C171.733 121.058 171.784 120.055 171.729 119.056C171.647 118.225 171.398 117.399 171.488 116.569C171.578 115.738 172 114.99 172.249 114.189C172.678 112.769 172.571 111.246 172.614 109.757C172.691 107.176 173.28 104.646 173.869 102.133C174.101 101.147 174.358 100.11 175.054 99.3789C175.647 98.7593 176.61 98.1655 176.386 97.335C176.262 97.0295 176.076 96.7528 175.841 96.5218C175.564 96.1744 175.361 95.7745 175.244 95.3463C175.127 94.918 175.097 94.4704 175.157 94.0304C174.906 94.0974 174.639 94.0737 174.404 93.9636C174.168 93.8535 173.979 93.6639 173.869 93.428C169.224 91.2379 165.469 86.849 163.815 81.9781C163.722 81.619 163.577 81.2755 163.385 80.9584C162.955 80.356 162.208 80.0978 161.546 79.7622C159.466 78.7166 158.027 76.7502 156.708 74.8268C155.943 73.7123 155.174 72.5592 154.843 71.2425C154.663 70.3941 154.576 69.5282 154.586 68.6608L154.47 64.1772C154.446 63.8875 154.475 63.596 154.556 63.3166C154.666 63.0488 154.832 62.807 155.041 62.6067C156.305 61.2573 157.97 60.352 159.789 60.0249C161.005 59.8098 162.251 59.8485 163.484 59.7496C165.877 59.5473 168.24 58.8072 170.638 58.9793C174.397 59.259 177.748 61.8666 179.518 65.2013C180.129 66.3889 180.786 67.4044 182.122 67.4259Z" fill="#464353"/>
<path d="M203.003 38.2697C202.95 38.9613 203.044 39.6565 203.278 40.3092C203.566 40.9374 204.305 41.4237 204.95 41.1698C204.752 40.7395 205.268 40.2318 205.749 40.2834C205.984 40.3366 206.203 40.4463 206.386 40.6029C206.569 40.7596 206.712 40.9586 206.802 41.1827C207.121 41.8222 207.23 42.5471 207.111 43.2524C206.956 44.1129 206.449 44.9735 206.582 45.8556C206.69 46.5871 207.227 47.3186 206.939 48.007C206.754 48.3164 206.522 48.5951 206.252 48.8332C205.875 49.2974 205.69 49.8885 205.736 50.4849C205.782 51.0813 206.054 51.6374 206.497 52.0388L199.287 52.1851C199.553 53.3899 199.012 54.6248 198.393 55.6962C196.662 58.6415 194.274 61.1454 191.415 63.0117C188.557 64.8779 185.305 66.056 181.916 66.4534C182.099 66.5608 182.256 66.7075 182.376 66.883C182.496 67.0584 182.575 67.2583 182.608 67.4682C182.641 67.6781 182.628 67.8927 182.568 68.0967C182.509 68.3007 182.405 68.4889 182.264 68.6479C181.675 69.2287 180.683 69.1599 179.948 68.7769C179.213 68.394 178.638 67.7744 177.963 67.2924C176.78 66.4502 175.335 66.0609 173.89 66.1952C172.988 66.2813 172.111 66.5696 171.205 66.6255C168.536 66.7675 166.238 64.8441 163.686 64.0438C161.812 63.4672 159.69 63.4715 158.1 62.3011C157.426 61.7977 156.867 60.9672 157.065 60.1497C157.236 59.6786 157.502 59.2479 157.847 58.8847C158.749 57.7143 159.282 56.3029 159.93 54.9734C161.223 52.3492 162.995 49.9907 165.155 48.0199C166.781 46.5943 168.504 45.2831 170.311 44.0957C170.749 43.7663 171.216 43.4782 171.707 43.2352C172.364 43.0211 173.004 42.7608 173.624 42.4563C174.483 41.9228 174.96 40.9805 175.613 40.2189C177.039 38.5493 179.235 37.7834 180.996 36.4711C182.178 35.589 183.222 34.4272 184.631 34.0012C185.315 33.7947 186.049 33.7775 186.732 33.5709C188.292 33.0976 189.426 31.7121 190.952 31.1527C192.163 30.7224 193.495 30.8257 194.776 30.6665C196.184 30.4916 197.529 29.9794 198.698 29.1734C199.087 28.8611 199.522 28.6115 199.987 28.4333C201.916 27.8438 202.075 31.4453 202.256 32.6975C202.522 34.5477 203.003 36.4022 203.003 38.2697Z" fill="white"/>
<path d="M201.117 50.3607C200.795 53.8762 203.446 57.2883 202.677 60.7306C202.509 61.4664 202.191 62.1635 202.075 62.9036C201.757 64.9474 202.973 66.8837 204.138 68.5963L214.119 83.2647C214.519 83.9099 214.998 84.5025 215.545 85.0289C217.457 86.7285 220.319 86.5521 222.823 87.0598C224.584 87.4174 226.248 88.1513 227.7 89.2113C227.763 89.2614 227.805 89.3338 227.817 89.4137C227.829 89.4936 227.81 89.575 227.764 89.6416C227.352 90.2088 226.803 90.6635 226.17 90.9642C225.537 91.2648 224.838 91.4018 224.138 91.3627C223.876 91.7069 224.138 92.2233 224.499 92.4642C225.036 92.8343 225.788 92.9332 225.878 93.8454C225.916 94.1624 225.853 94.4831 225.698 94.762C225.295 95.3768 224.669 95.8116 223.953 95.9754C220.516 97.0339 216.761 95.175 214.174 92.6449C211.588 90.1149 209.732 86.9221 207.193 84.3447C205.788 82.9205 204.185 81.6985 202.741 80.3173C199.854 77.5634 197.607 74.2115 195.437 70.851C194.728 69.8765 194.193 68.786 193.856 67.6281C193.59 66.4836 193.71 65.2745 193.401 64.1385C192.997 62.654 191.91 61.4707 191.007 60.2229C189.237 57.7789 188.051 54.7927 188.288 51.7807C188.524 48.7687 190.38 45.804 193.216 44.7799C194.095 44.4293 195.063 44.3705 195.979 44.6121C197.143 44.9693 197.998 45.9331 198.793 46.8539L200.688 49.0441C201.162 49.5269 201.538 50.0986 201.792 50.7265C201.914 51.0423 201.942 51.3868 201.873 51.7182C201.803 52.0497 201.639 52.3538 201.401 52.5939" fill="#FBBEBE"/>
<path d="M196.069 35.916C197.384 35.9934 198.823 36.1268 199.751 37.0606C200.139 37.4922 200.452 37.9851 200.679 38.5192C201.581 40.3522 202.453 42.2713 202.522 44.3152C202.574 45.9503 202.093 47.5466 201.852 49.1645C201.646 50.507 202.17 51.8796 202.282 53.235C200.653 52.7402 198.505 52.0603 197.031 51.2127C196.061 50.5794 195.031 50.0447 193.955 49.6163C192.391 49.0914 189.753 49.9907 188.275 50.7221C188.193 49.6765 188.979 47.8521 188.898 46.8022C188.883 46.3626 188.804 45.9276 188.662 45.5114C188.441 45.0695 188.177 44.6501 187.875 44.2592C187.305 43.3357 187.043 42.2548 187.126 41.1723C187.208 40.0897 187.632 39.0614 188.335 38.2352C189.654 36.7464 191.725 36.1871 193.701 35.959C194.945 35.8134 196.198 35.7688 197.448 35.8256" fill="white"/>
<path d="M438.377 130.463L429.784 216.52L133.752 337L33.642 242.768L26.3378 154.129L308.621 71.5137L438.377 130.463Z" fill="#DFE6F5"/>
<path opacity="0.1" d="M133.752 337L33.642 242.767L26.3378 154.128L131.174 239.755L133.752 337Z" fill="black"/>
<path opacity="0.05" d="M438.377 130.463L429.784 216.52L133.752 337L131.174 239.755L438.377 130.463Z" fill="black"/>
<path d="M34.7161 160.798L310.555 82.4858L424.843 135.411L130.959 239.54L34.7161 160.798Z" fill="#A7ADB8"/>
<path d="M359.535 36.2688L356.145 36.613L267.142 45.5802C262.901 46.0027 258.944 47.9122 255.971 50.9717L207.42 101.005L98.391 213.331L130.744 239.755L208.761 212.002L242.777 199.911L338.426 85.2526L368.575 49.1085C368.575 49.1085 369.357 38.829 359.535 36.2688ZM268.629 91.8144C264.526 94.2025 260.036 94.138 258.609 91.6724C257.643 90.0029 258.33 87.6579 260.148 85.5753C261.095 84.5011 262.211 83.5885 263.452 82.8731C266.846 80.8981 270.494 80.6055 272.474 81.9566C272.885 82.2293 273.228 82.5911 273.48 83.0151C274.902 85.4935 272.732 89.4306 268.629 91.8144Z" fill="#454B69"/>
<path opacity="0.1" d="M359.535 36.2688L356.145 36.613C360.3 40.989 358.139 42.2498 358.139 42.2498L325.485 79.3663L208.761 212.002L242.777 199.911L338.426 85.2526L368.575 49.1085C368.575 49.1085 369.357 38.829 359.535 36.2688Z" fill="black"/>
<path d="M263.452 82.8729C262.212 83.5844 261.096 84.4927 260.148 85.5622L272.466 81.9564C270.498 80.6182 266.846 80.9108 263.452 82.8729Z" fill="#DFE6F5"/>
<path d="M258.609 91.6724C260.04 94.138 264.526 94.2025 268.629 91.8144C272.732 89.4263 274.902 85.4935 273.471 83.028C273.22 82.604 272.876 82.2422 272.466 81.9695L260.148 85.5753C258.33 87.6579 257.643 90.0029 258.609 91.6724Z" fill="#DFE6F5"/>
<path opacity="0.1" d="M322.205 285.925C331.553 281.233 338.522 276.209 337.769 274.705C337.016 273.201 328.827 275.786 319.478 280.478C310.13 285.171 303.161 290.194 303.914 291.699C304.667 293.203 312.856 290.618 322.205 285.925Z" fill="white"/>
<path d="M320.948 283.296C321.85 283.296 322.581 282.337 322.581 281.153C322.581 279.97 321.85 279.01 320.948 279.01C320.046 279.01 319.315 279.97 319.315 281.153C319.315 282.337 320.046 283.296 320.948 283.296Z" fill="#3F3D56"/>
<path d="M320.948 280.676C321.85 280.676 322.581 279.716 322.581 278.533C322.581 277.349 321.85 276.39 320.948 276.39C320.046 276.39 319.315 277.349 319.315 278.533C319.315 279.716 320.046 280.676 320.948 280.676Z" fill="#3F3D56"/>
<path d="M320.948 278.059C321.85 278.059 322.581 277.1 322.581 275.917C322.581 274.733 321.85 273.774 320.948 273.774C320.046 273.774 319.315 274.733 319.315 275.917C319.315 277.1 320.046 278.059 320.948 278.059Z" fill="#3F3D56"/>
<path d="M320.948 275.443C321.85 275.443 322.581 274.484 322.581 273.301C322.581 272.117 321.85 271.158 320.948 271.158C320.046 271.158 319.315 272.117 319.315 273.301C319.315 274.484 320.046 275.443 320.948 275.443Z" fill="#3F3D56"/>
<path d="M320.948 272.827C321.85 272.827 322.581 271.868 322.581 270.684C322.581 269.501 321.85 268.542 320.948 268.542C320.046 268.542 319.315 269.501 319.315 270.684C319.315 271.868 320.046 272.827 320.948 272.827Z" fill="#3F3D56"/>
<path d="M320.948 270.211C321.85 270.211 322.581 269.252 322.581 268.068C322.581 266.885 321.85 265.925 320.948 265.925C320.046 265.925 319.315 266.885 319.315 268.068C319.315 269.252 320.046 270.211 320.948 270.211Z" fill="#3F3D56"/>
<path d="M320.948 267.595C321.85 267.595 322.581 266.636 322.581 265.452C322.581 264.269 321.85 263.309 320.948 263.309C320.046 263.309 319.315 264.269 319.315 265.452C319.315 266.636 320.046 267.595 320.948 267.595Z" fill="#3F3D56"/>
<path d="M327.062 247.543C327.284 247.258 327.486 246.957 327.668 246.644L323.371 245.938L328.016 245.973C328.46 245.003 328.702 243.952 328.727 242.886C328.752 241.819 328.56 240.758 328.162 239.768L321.936 243L327.681 238.774C327.14 237.849 326.415 237.045 325.551 236.412C324.687 235.779 323.702 235.33 322.658 235.093C321.614 234.856 320.533 234.836 319.481 235.035C318.429 235.234 317.429 235.646 316.542 236.247C315.656 236.849 314.902 237.626 314.328 238.53C313.753 239.435 313.37 240.448 313.203 241.507C313.035 242.566 313.086 243.648 313.352 244.686C313.619 245.724 314.095 246.697 314.752 247.543C314.416 247.985 314.128 248.461 313.893 248.963L319.479 251.859L313.541 249.863C313.124 251.097 313.021 252.417 313.241 253.701C313.461 254.986 313.996 256.195 314.8 257.221C313.892 258.376 313.328 259.765 313.171 261.227C313.014 262.689 313.271 264.165 313.913 265.488C314.554 266.81 315.554 267.925 316.799 268.705C318.043 269.485 319.482 269.899 320.95 269.899C322.418 269.899 323.857 269.485 325.101 268.705C326.346 267.925 327.346 266.81 327.988 265.488C328.629 264.165 328.886 262.689 328.729 261.227C328.573 259.765 328.008 258.376 327.101 257.221C328.183 255.839 328.772 254.134 328.772 252.378C328.772 250.622 328.183 248.916 327.101 247.535L327.062 247.543Z" fill="white"/>
<path opacity="0.1" d="M313.09 252.406C313.089 254.155 313.674 255.853 314.752 257.229C313.845 258.385 313.28 259.773 313.124 261.235C312.967 262.697 313.224 264.174 313.865 265.496C314.507 266.819 315.507 267.934 316.752 268.714C317.996 269.494 319.435 269.908 320.903 269.908C322.371 269.908 323.81 269.494 325.054 268.714C326.299 267.934 327.299 266.819 327.94 265.496C328.582 264.174 328.839 262.697 328.682 261.235C328.525 259.773 327.961 258.385 327.053 257.229C328.11 255.895 313.09 251.507 313.09 252.406Z" fill="black"/>
<path opacity="0.1" d="M420.548 256.206C426.66 253.139 431.215 249.854 430.723 248.871C430.231 247.887 424.877 249.577 418.765 252.644C412.654 255.712 408.098 258.996 408.59 259.98C409.083 260.963 414.436 259.274 420.548 256.206Z" fill="white"/>
<path d="M419.73 254.497C420.319 254.497 420.796 253.871 420.796 253.099C420.796 252.326 420.319 251.7 419.73 251.7C419.142 251.7 418.664 252.326 418.664 253.099C418.664 253.871 419.142 254.497 419.73 254.497Z" fill="#3F3D56"/>
<path d="M419.73 252.784C420.319 252.784 420.796 252.158 420.796 251.386C420.796 250.614 420.319 249.988 419.73 249.988C419.142 249.988 418.664 250.614 418.664 251.386C418.664 252.158 419.142 252.784 419.73 252.784Z" fill="#3F3D56"/>
<path d="M419.73 251.072C420.319 251.072 420.796 250.446 420.796 249.673C420.796 248.901 420.319 248.275 419.73 248.275C419.142 248.275 418.664 248.901 418.664 249.673C418.664 250.446 419.142 251.072 419.73 251.072Z" fill="#3F3D56"/>
<path d="M419.73 249.364C420.319 249.364 420.796 248.738 420.796 247.965C420.796 247.193 420.319 246.567 419.73 246.567C419.142 246.567 418.664 247.193 418.664 247.965C418.664 248.738 419.142 249.364 419.73 249.364Z" fill="#3F3D56"/>
<path d="M419.73 247.651C420.319 247.651 420.796 247.025 420.796 246.253C420.796 245.48 420.319 244.854 419.73 244.854C419.142 244.854 418.664 245.48 418.664 246.253C418.664 247.025 419.142 247.651 419.73 247.651Z" fill="#3F3D56"/>
<path d="M419.73 245.943C420.319 245.943 420.796 245.317 420.796 244.544C420.796 243.772 420.319 243.146 419.73 243.146C419.142 243.146 418.664 243.772 418.664 244.544C418.664 245.317 419.142 245.943 419.73 245.943Z" fill="#3F3D56"/>
<path d="M419.73 244.23C420.319 244.23 420.796 243.604 420.796 242.832C420.796 242.059 420.319 241.433 419.73 241.433C419.142 241.433 418.664 242.059 418.664 242.832C418.664 243.604 419.142 244.23 419.73 244.23Z" fill="#3F3D56"/>
<path d="M423.726 231.124C423.872 230.939 424.004 230.743 424.121 230.539L421.315 230.078H424.353C424.662 229.403 424.822 228.669 424.821 227.927C424.822 227.27 424.695 226.62 424.448 226.012L420.379 228.125L424.134 225.362C423.781 224.757 423.307 224.231 422.742 223.816C422.178 223.402 421.534 223.108 420.851 222.953C420.169 222.798 419.462 222.785 418.774 222.914C418.086 223.044 417.432 223.314 416.852 223.707C416.272 224.1 415.78 224.609 415.404 225.2C415.029 225.792 414.779 226.455 414.67 227.147C414.56 227.84 414.594 228.548 414.769 229.226C414.944 229.905 415.257 230.541 415.687 231.094C415.46 231.384 415.264 231.697 415.103 232.028L418.746 233.925L414.879 232.634C414.606 233.441 414.538 234.304 414.682 235.144C414.827 235.984 415.178 236.775 415.704 237.445C415.11 238.2 414.739 239.109 414.636 240.065C414.533 241.022 414.7 241.988 415.12 242.854C415.539 243.719 416.193 244.449 417.007 244.96C417.822 245.47 418.763 245.741 419.724 245.741C420.684 245.741 421.626 245.47 422.44 244.96C423.254 244.449 423.908 243.719 424.327 242.854C424.747 241.988 424.914 241.022 424.811 240.065C424.708 239.109 424.338 238.2 423.743 237.445C424.452 236.542 424.838 235.427 424.838 234.278C424.838 233.129 424.452 232.014 423.743 231.111L423.726 231.124Z" fill="white"/>
<path opacity="0.1" d="M414.591 234.291C414.589 235.44 414.975 236.556 415.687 237.458C415.092 238.213 414.722 239.121 414.619 240.078C414.515 241.034 414.683 242.001 415.102 242.866C415.522 243.732 416.176 244.462 416.99 244.972C417.804 245.483 418.746 245.754 419.706 245.754C420.667 245.754 421.608 245.483 422.423 244.972C423.237 244.462 423.891 243.732 424.31 242.866C424.73 242.001 424.897 241.034 424.794 240.078C424.691 239.121 424.32 238.213 423.726 237.458C424.409 236.584 414.591 233.714 414.591 234.291Z" fill="black"/>
<path opacity="0.1" d="M96.5699 335.937C98.377 334.128 96.2837 329.097 91.8943 324.701C87.5049 320.305 82.4816 318.209 80.6745 320.019C78.8674 321.828 80.9608 326.859 85.3502 331.255C89.7396 335.651 94.7628 337.747 96.5699 335.937Z" fill="white"/>
<path d="M89.4198 328.713C90.7914 328.713 91.9032 327.254 91.9032 325.456C91.9032 323.657 90.7914 322.198 89.4198 322.198C88.0483 322.198 86.9364 323.657 86.9364 325.456C86.9364 327.254 88.0483 328.713 89.4198 328.713Z" fill="#3F3D56"/>
<path d="M89.4198 324.733C90.7914 324.733 91.9032 323.274 91.9032 321.475C91.9032 319.676 90.7914 318.218 89.4198 318.218C88.0483 318.218 86.9364 319.676 86.9364 321.475C86.9364 323.274 88.0483 324.733 89.4198 324.733Z" fill="#3F3D56"/>
<path d="M89.4198 320.748C90.7914 320.748 91.9032 319.29 91.9032 317.491C91.9032 315.692 90.7914 314.233 89.4198 314.233C88.0483 314.233 86.9364 315.692 86.9364 317.491C86.9364 319.29 88.0483 320.748 89.4198 320.748Z" fill="#3F3D56"/>
<path d="M89.4198 316.764C90.7914 316.764 91.9032 315.305 91.9032 313.506C91.9032 311.707 90.7914 310.249 89.4198 310.249C88.0483 310.249 86.9364 311.707 86.9364 313.506C86.9364 315.305 88.0483 316.764 89.4198 316.764Z" fill="#3F3D56"/>
<path d="M89.4198 312.784C90.7914 312.784 91.9032 311.325 91.9032 309.526C91.9032 307.727 90.7914 306.269 89.4198 306.269C88.0483 306.269 86.9364 307.727 86.9364 309.526C86.9364 311.325 88.0483 312.784 89.4198 312.784Z" fill="#3F3D56"/>
<path d="M89.4198 308.799C90.7914 308.799 91.9032 307.341 91.9032 305.542C91.9032 303.743 90.7914 302.284 89.4198 302.284C88.0483 302.284 86.9364 303.743 86.9364 305.542C86.9364 307.341 88.0483 308.799 89.4198 308.799Z" fill="#3F3D56"/>
<path d="M89.4198 304.819C90.7914 304.819 91.9032 303.361 91.9032 301.562C91.9032 299.763 90.7914 298.304 89.4198 298.304C88.0483 298.304 86.9364 299.763 86.9364 301.562C86.9364 303.361 88.0483 304.819 89.4198 304.819Z" fill="#3F3D56"/>
<path d="M98.7261 274.307C99.0653 273.875 99.3739 273.419 99.6499 272.943L93.1191 271.868L100.183 271.919C100.864 270.441 101.236 268.838 101.275 267.21C101.314 265.582 101.02 263.963 100.41 262.453L90.9322 267.375L99.6714 260.921C98.8548 259.5 97.7546 258.264 96.4393 257.288C95.124 256.312 93.622 255.619 92.027 255.251C90.4321 254.883 88.7784 254.848 87.1694 255.148C85.5604 255.449 84.0306 256.079 82.6754 256.998C81.3203 257.917 80.1691 259.107 79.2936 260.492C78.4181 261.877 77.8371 263.427 77.587 265.047C77.3369 266.667 77.423 268.322 77.84 269.907C78.257 271.492 78.9958 272.974 80.0104 274.26C79.4804 274.933 79.0251 275.661 78.6527 276.433L87.1298 280.843L78.107 277.806C77.4746 279.683 77.319 281.689 77.6543 283.643C77.9896 285.596 78.8052 287.434 80.0276 288.993C78.6463 290.752 77.787 292.864 77.548 295.089C77.309 297.314 77.7 299.561 78.6761 301.574C79.6523 303.586 81.1743 305.283 83.0681 306.471C84.9619 307.658 87.1512 308.288 89.3854 308.288C91.6197 308.288 93.8089 307.658 95.7028 306.471C97.5966 305.283 99.1186 303.586 100.095 301.574C101.071 299.561 101.462 297.314 101.223 295.089C100.984 292.864 100.125 290.752 98.7433 288.993C100.394 286.892 101.291 284.296 101.291 281.622C101.291 278.949 100.394 276.353 98.7433 274.251L98.7261 274.307Z" fill="white"/>
<path opacity="0.1" d="M77.4625 281.665C77.4586 284.339 78.3563 286.937 80.0103 289.036C78.629 290.795 77.7698 292.907 77.5308 295.132C77.2918 297.357 77.6827 299.604 78.6589 301.617C79.6351 303.629 81.1571 305.326 83.0509 306.514C84.9447 307.701 87.1339 308.33 89.3682 308.33C91.6025 308.33 93.7917 307.701 95.6855 306.514C97.5794 305.326 99.1014 303.629 100.078 301.617C101.054 299.604 101.445 297.357 101.206 295.132C100.967 292.907 100.107 290.795 98.7261 289.036C100.32 287.022 77.4625 280.34 77.4625 281.665Z" fill="black"/>
</g>
<defs>
<clipPath id="clip0">
<rect width="486" height="337" fill="white"/>
</clipPath>
</defs>
</svg>
